/* XPM */
static char *chicken1726437252[] = {
/* columns rows colors chars-per-pixel */
"64 64 219 2 ",
"   c #020203",
".  c #0A0305",
"X  c #020B03",
"o  c #0C0902",
"O  c #03040A",
"+  c #0B030A",
"@  c #040B0C",
"#  c #0C0C0D",
"$  c #130100",
"%  c #1A0400",
"&  c #130D02",
"*  c #12010D",
"=  c #130C0C",
"-  c #0D1605",
";  c #141102",
":  c #151609",
">  c #060E15",
",  c #0D0D11",
"<  c #080615",
"1  c #140B11",
"2  c #190914",
"3  c #0B1213",
"4  c #0C151A",
"5  c #131414",
"6  c #15161B",
"7  c #1B151A",
"8  c #141A1A",
"9  c #1B1B1B",
"0  c #181816",
"q  c #281409",
"w  c #311200",
"e  c #241819",
"r  c #331315",
"t  c #12220E",
"y  c #332908",
"u  c #28251D",
"i  c #1F1F21",
"p  c #150B26",
"a  c #281C21",
"s  c #261A38",
"d  c #1C2223",
"f  c #1B2926",
"g  c #232323",
"h  c #252B2C",
"j  c #2C2C2C",
"k  c #272726",
"l  c #322836",
"z  c #2E3333",
"x  c #343334",
"c  c #35393A",
"v  c #302A2C",
"b  c #4C5C5C",
"n  c #4C5759",
"m  c #535E5E",
"M  c #595F5F",
"N  c #4F605E",
"B  c #545F61",
"V  c #4C5E60",
"C  c #556364",
"Z  c #596665",
"A  c #5A6A6A",
"S  c #586968",
"D  c #4F6163",
"F  c #636E6D",
"G  c #60706F",
"H  c #647273",
"J  c #6D7A7B",
"K  c #DE0000",
"L  c #DE1002",
"P  c #E50302",
"I  c #EC0300",
"U  c #E60605",
"Y  c #F40200",
"T  c #FC0202",
"R  c #FD0B03",
"E  c #FE030C",
"W  c #FF0A0B",
"Q  c #F40307",
"!  c #EC0013",
"~  c #FD031B",
"^  c #F80817",
"/  c #FF121A",
"(  c #FF1C1C",
")  c #FF1513",
"_  c #F51707",
"`  c #EA200C",
"'  c #DF0221",
"]  c #FD0C22",
"[  c #FF0621",
"{  c #FD1324",
"}  c #FC1527",
"|  c #EC0B2D",
" . c #FF3352",
".. c #9D921E",
"X. c #9D963C",
"o. c #9C952B",
"O. c #A19427",
"+. c #B89A2C",
"@. c #A89838",
"#. c #B49739",
"$. c #B3A43C",
"%. c #AAA32D",
"&. c #C79D38",
"*. c #9B8F42",
"=. c #A99644",
"-. c #B29E47",
";. c #B49A51",
":. c #96A65F",
">. c #B8A249",
",. c #BAA958",
"<. c #BDB15F",
"1. c #C29F53",
"2. c #C19D4F",
"3. c #CBBB4C",
"4. c #C3A157",
"5. c #CFC043",
"6. c #D7C85B",
"7. c #D4C544",
"8. c #E6C84D",
"9. c #EBCA5F",
"0. c #DBC567",
"q. c #DECD73",
"w. c #EACA67",
"e. c #F6CE75",
"r. c #7C8B8C",
"t. c #7E8D90",
"y. c #808E8F",
"u. c #818F90",
"i. c #839292",
"p. c #8D9B9B",
"a. c #889799",
"s. c #929C9C",
"d. c #919FA0",
"f. c #95A3A3",
"g. c #98A6A6",
"h. c #9AA7A8",
"j. c #9CAAAA",
"k. c #9FADB0",
"l. c #9EB0B0",
"z. c #A2AEAF",
"x. c #ADADAD",
"c. c #A2AFB0",
"v. c #A5B2B3",
"b. c #A9B4B5",
"n. c #ABB7B9",
"m. c #ACBABC",
"M. c #AEB8B7",
"N. c #B4B4B4",
"B. c #BBBBBB",
"V. c #B3C0BF",
"C. c #AFBDC1",
"Z. c #B2BEC1",
"A. c #B4C3C4",
"S. c #BBC6C7",
"D. c #B7C9CA",
"F. c #BDCACB",
"G. c #BBC8C9",
"H. c #BFCED1",
"J. c #BBD4D1",
"K. c #ADCCC4",
"L. c #BEE0CF",
"P. c #C4C4C4",
"I. c #C1CDCD",
"U. c #CBCBCB",
"Y. c #C3CED1",
"T. c #C4D2D3",
"R. c #C9D6D6",
"E. c #C5D5D9",
"W. c #C9D7D8",
"Q. c #CCDADB",
"!. c #C8DAD9",
"~. c #D3D3D3",
"^. c #D1DEDE",
"/. c #DCDCDC",
"(. c #DDD7D9",
"). c #D5CBD4",
"_. c #E4D9D7",
"`. c #F1D7C6",
"'. c #D4E9D3",
"]. c #D9E3D8",
"[. c #D9F3DB",
"{. c #CDE7CC",
"}. c #E2E8DD",
"|. c #E1FBDF",
" X c #CBDFE0",
".X c #D1DEE2",
"XX c #E4DCE7",
"oX c #EDDDF8",
"OX c #CDE8E5",
"+X c #D3E1E2",
"@X c #DBE5E4",
"#X c #DEECEC",
"$X c #D9E8E8",
"%X c #D8F9EC",
"&X c #DEECF3",
"*X c #D8F9F7",
"=X c #CFF1F3",
"-X c #E4E4E4",
";X c #E2E9E5",
":X c #E2EDED",
">X c #EBEBEB",
",X c #E9E7E6",
"<X c #F2E8E8",
"1X c #E8F4E9",
"2X c #F3F1EE",
"3X c #F9F0E7",
"4X c #E2EFF2",
"5X c #F5EBF8",
"6X c #E4F3F3",
"7X c #EAF6F5",
"8X c #E4FCFE",
"9X c #EDFBFB",
"0X c #E9F5FA",
"qX c #F4F4F4",
"wX c #FAFAF5",
"eX c #F4F2FF",
"rX c #F3FEFE",
"tX c #FEFEFE",
"yX c #FAF6F7",
/* pixels */
"tXtXtXtXtXtXtXtXtXtXtXtXtXtXtXtXqXtXtXqXtXtXqXtXtXtXtXtXtXtXtXtXtXtXtXtXtXtXtXtXtXtXtXtXtXtXtXtXtXtXtXtXtXtXtXtXtXtXtXtXtXtXtXtX",
"tXtXtXtXtXtXtXtXtXtXtXtXyXtXtXyXtXtXyXtXtXtXtXyXtXtXtXtXtXtXtXtXtXtXtXtXtXtXtXtXtXtXtXtXtXtXtXtXtXtXtXtXtXtXtXtXtXtXtXtXtXtXtXtX",
"tXtXtXtXtXtXtXtXtXtXtXtXtXtXtXtXtXtXtXtX7XyXrXrXtXtXtXtXtXtXtXtXtXtXtXtXtXtXtXtXtXtXtXtXtXtXtXtXtXtXtXtXtXtXtXtXtXtXtXtXtXtXtXtX",
"tXtXtXtXtXtXtXtXtXtXtXtXtXtXtXtXqXqX:X:XtXtXtXtXtXtXtXtXtXtXtXtXtXtXtXtXtXtXtXtXtXtXtXtXtXtXtXtXtXtXtXtXtXtXtXtXtXtXtXtXtXtXtXtX",
"tXtXtXtXtXtXtXtXtXtXtXtXtXyXyXqXj 9 8 z ;XrXtXtXtXtXtXtXtXtXtXtXtXtXtXtXtXtXtXtXtXtXtXtXtXtXtXtXtXtXtXtXtXtXtXtXtXtXtXtXtXtXtXtX",
"tXtXtXtXtXtXtXtXtXtXtXtXtXtXtXwX0 .   = wXtXtXtXtXtXtXtXtXtXtXtXtXtXtXtXtXtXtXtXtXtXtXtXtXtXtXtXtXtXtXtXtXtXtXtXtXtXtXtXtXtXtXtX",
"tXtXtXtXtXtXtXtXyXtXtXtXtXtXtXyX7 .   7 >XyXwXtXtXyXtXtXtXtXtXtXtXtXtXtXtXtXtXtXtXtXtXtXtXtXtXtXtXtXtXtXtXtXtXtXtXtXtXtXtXtXtXtX",
"tXtXtXtXtXtXtXtXtXtXtXyXqX>X,X@Xk . . a _.yXwX>X>X>X>XqXyXtXtXtXtXtXtXtXtXtXtXtXtXtXtXtXtXtXtXtXtXtXtXtXtXtXtXtXtXtXtXtXtXtXtXtX",
"tXtXtXtXtXtXtXtXeXtXtX<Xf = = q ! U L ! - e 5 - 5 5 = g 2XtXtXwXtXtXtXtXtXtXtXtXtXtXtXtXtXtXtXtXyXtXtXqXtXtXyXtXtXtXtXtXtXtXtXtX",
"tXtXtXtXtXtXtXtXtXtXtX2X3   . * P I R Q o .   .   @ O # 2XwXwXtXtXtXtXtXtXtXtXyXtXtXtXtXtXtXtXtXtXtXyXtXtXtXtXtXtXtXtXtXtXtXtXtX",
"tXtXtXtXtXtXtXtXtXwXwX7X2 * * + U R R Q o O O .       # >XtXtXtXtXtXtXtXtXtXtXtXtXtXtXtXtXtXtXtXtXtXtXtXqXyXtXtXtXtXtXtXtXtXtXtX",
"tXtXtXtXtXtXtXyX<X<X7XL.r   X - ~ ~ { | q 6 4 5 d , O z ~.yX2X-XyXtXtXtXtXtXtXtXtXtXtXtXtXtXtXtXqX>X>X>XtXtXtXtXtXtXtXtXtXtXtXtX",
"tXtXtXtXtXtXtXqXf > 2 r ' ^ ~ ~ ;X|.1X3XK.I.I.S.C.T.W.m.x 3 0 x qXyXtXtXyXtXtXtXtXtXtXyXtXtXyXqXg 0 0 j ;XtXwXyXtXtXtXtXtXtXtXtX",
"tXtXtXtXtXtXyX>X# . * . / P I ) 5X0X8X8XE.~.W.J.!.!.R.Y.@     O qXtXtXtXtXtXtXtXtXtXtXtXtXtXtXqX5     # yXtXtXtXtXtXtXtXtXtXtXtX",
"tXtXtXtXtXtXyX>X: O +   ~ Y R ) qXrXrX8XT.R.E.E.!.E.T.R.> @ @ 1 >XtXtXtXtXtXtXtXtXtXtXtXtXtXyX>X5 . . 8 >XqXyXtXtXtXtXtXtXtXtXtX",
"yXtXtXyXtXtXtX>X:     - ^ I W / }.2XyXrXI.K.H.).E.!.E.T.d , 5 k @X2XqXqXqXtXtXtXyXtXtXqXqXyXqX@Xj #   h @XtXyX>XtXtXtXtXtXtXtXtX",
"tXqXwXtXqXtXtX>X0 o < > T I ! ( 6XrXtX;Xg + 9 j 7X9XrX#XT.F.G.m.j i 9 x 2XtXtXtXtXtXtX2Xj 5 e j A.D.T.F.d 5 i v >XyXtXyXtXyXtXtX",
"tXtXtXtXtXtXyXqX= X O @ T R ! / 1XrXqX].8 # . 7 6X9XrX7XQ.!.!.T.5     , qXwX2XqX2X2XtXqX, O . 6 J.!.Y.F.8 #   , >XtXtXyXtXtXtXtX",
"yXyXwX7XtXtXyX7X2 O O o T T T _ $XtXrX;X3     0 6X9XrX7XQ.T.T.I.@ O   9 yXtXtXtXtXtXtXqX9   < 5 D..XW.T.3 O   0 >XtXtXtXyXyXqXtX",
"tXtXtXtX,X>X,X,Xe 5 & w } / / ( ;XrX7XQ.x 8 5 h 6X9X9X6X].!.!.T.h > 3 c ~.>X2X_.].>X2XU.c < 1 h D.Q.W.S.f 3 # i .X2X,X-XtXtXtXtX",
"yXtXtX;Xx 0 0 0 @.#.@.:.`.%XOX=X7X7X9XtX].$X:X:X6X6X7X9X7X0X9X6XF.F.T.x.c # 5 9 u 5 3 z x.T.Y.I.8X&X9X9XF.I.R.S.9 = 9 x @XyXtXqX",
"tXtXtXyX#       %.&.&.,.<X*X8XeX7X#X6X:X9X0XrX7X9X#X7X9XrXrXrX9X+XE.^.I.5   O         @ T.Q.Q..XrX4X9X6X^.T.].V.0     9 qXtXtXyX",
"tXtXyX>X9 # . # @.;.#.>.}.8X|.1X6X7X9X6X7X&X7X9X9X#X6X9X9X9X9X0XE.D.+XF.4 O ,     O   O E.!.T.J.6X6XrX0XR.I.W.U.5     9 >XqXtXtX",
"qXtXtX,Xz # 5 h o.=.%.$.XX5X,X@X:X6X$X%X6X9X#X6X7X6X6X9X9X9X9X9XOXJ..XA.h , 9 # 3 8 8 8 T.!.!. X9X9X9X9XR.R.T.S.5     d >XtXtXtX",
"tXtXyXyXqXyXqX@X9 1 5 q ] ) _ ( ] ( ` } %XeX#X%X9X7X7X7X7X6X6X6XW.W.!.E.T.Y.Y.Y.Y.T.!.Y.9X:X6X7X9X0X9X7XQ.E.Q.F.5     0 2XtXtXqX",
"tXtXtXtXtXtXtX,X: .   % U T P Q Y T I ] '.rX6X7X6X6X6X6X6X&X6X6X+X+X+X.XQ.^.Q.Q.+X+XQ.!.9X6X7X6X0X6X9X6X!.T.!.G.5     9 qXtXtXtX",
"tXtXtXtXtXtXtX>X:     % ! R I E I R Y } '.9X0X5X6X7X0X7X7X6X6X7XQ.Q.Q.Q.!.!.!.R.Q.Q.^.Q.9X9X7X7XrX9XrX9X^.W.Q.H.=     0 qXtXtXtX",
"tXyXtXtXyXtXtX>X5   O % ! W Y E [ ] }  ._.0X0X9X6X8X0X6X6X#X&X6X^.^.]..XQ.+X^.]..X.X].+X:X6X#X6X0X6X9X4XT.F.H.A.3     9 >XtXyXtX",
"tXtXtXtXtXtXtX>X0   O % ! W Y E '.'.'.~.*X6X$X;X#X6X6X#X$X^.+X+X9X0X0X9X9X9X9X9X9X9X0X6X].Q.Q.^.!.R.Q.E.v.j.v.f.=     9 qXtXtXtX",
"tXtXtXtXtXtXtX>X5   O % ! W R / XX&X*X&X*X;X#X*X#X6X&X#X+XQ.Q.Q.rXrXrXrXrXrXrXrXrXrXrXrX!.T.I.T.T.T.Q.F.j.f.g.p.#     9 >XtXtXtX",
"tXtXtXtXtXtXtX>X# + O $ U T U / #X&X8X*X:X$X:X&X6X6X6X#X+XQ.+X+X9X9X9X9X9X9XrX9X9XrXrXrXT.E.E.R.!.!.^.T.v.g.j.p.5 .   9 >XtXyXtX",
"tXtXtXtXtXtXtX>Xk 7 6 q ! Q P ^ ]./.XX4X-X*X4XoX#X#X6X#X+XQ.Q.+X9XrXrX9XrXrXrXrX9X9X9XrXR.Q.Q.Q.Y.F.W.G.g.p.f.a.g 8 5 h qXtXtXtX",
"tXtXtXtXtXtXtXtX,XqXyX(.a . . a g.k.f.h.C.Z.n.Z.#X6X4X#X+XQ.Q..X9XrXrX9XrXrX9XrXrX9XrXrX0X9XrX0XD.V.K.M.8 3 3 g /.>XqX7XyXtXtXtX",
"tXtXtXtXtXtXtXtXtXtXqX>X9 + . = a.g.g.h.C.C.C.G.#X&X6X#X+XQ..X+X7X9X9X9XrXrXrXrXrX9XrXrX9X9X9X7XA.n.V.c.3 X   0 >XwXtXyXtXtXtXtX",
"tXtXtXtXtXtXtXtXtXtXtXyX=   . # p.j.h.h.n.v.v.C.6X6X6X#X+X+X.X.X9XrXrX9XrXrX9XrXrX9X9XrXrXrXrXrXK.V.S.b.3     = 2XtXtXtXtXtXtXtX",
"tXtXtXtXtXtXtXtXqXtXyX@Xz 9 8 u s.s.s.p.Z.C.m.m.$X#X4X$X+XQ.Q. X7X0X7X7XrXrX0XrXrX0XrXrX0X9X7X6XA.m.A.x.3     5 ;XtXtXyXtXtXwXtX",
"tXtXtXtXtXtXtXtXtXtXrXtX:X2X7X7Xg 8 3 d Z H H F n.n.m.b.j.g.g.j.Q.^.^.$X0XrX9XrXrXrXrX0X].!.W.!.j.f.l.f.-     0 ,XtXtXtXtXtXtXtX",
"tXtXtXtXtXtXtXtXtXtXwX7XtXtXtXqX8     @ A J J J n.m.V.b.k.h.j.j.R.Q.!.+X9XrXrXrXrXrXrX9XQ.I.T.I.j.d.g.s.X     , 2XtXtXtXtXtXtXtX",
"tXtXtXtXtXtXtXtXyXtXtXtXtXrXqXqX9 X   3 A F G A m.m.m.b.k.h.j.j.^.^.Q.$X9XrX9XrX9X9XrX7X.XT.E.T.l.d.j.d.3 # X 5 :XtXtXyXtXtXyXtX",
"tXtXtXtXtXtXtXtXtXyXtXtXqXtXtX7Xj 0 8 8 G A G A v.n.m.l.j.f.f.g.T.R.E.Q.7XrX9X9XrX0X9X6X!.T.T.F.f.i.d.d.4 8 9 k >XtXtXtXtXtXtXtX",
"tXtXtXtXtXtXtXtXtXtXtXtXtXtXtXtX>XwXqX/.u     9 D A D A t.a.r.t.j.j.j.j.R.!.R.R.!.E..XH.k.g.z.s.k = . k .XqXqX>XtXtXtXtXtXtXtXtX",
"tXtXtXtXtXtXtXtXtXtXtXtXtXtXtXtXtXwXqX>X5 O   . V D D S t.t.t.i.f.f.g.g.T.T.T.T.!.T.Q.H.z.g.j.p.#   X 6 2XqXtXtXtXtXtXtXtXtXtXtX",
"tXtXtXtXtXtXtXtXtXtXtXtXtXtXtXtXtXtXtXqX#     O B Z C Z r.t.r.t.f.g.g.g.R.R.R.R.E.T.W.T.x.j.h.s.O     # yXtXtXtXtXtXtXtXtXtXtXtX",
"tXtXtXtXtXtXtXtXtXtXtXtXtXtXtXtXyXtXyX@Xj 5 = 5 B m n m t.t.t.i.d.f.f.g.T.T.T.T.H.H.Y.Y.s.p.s.s.9 0 0 z ,XwXtXyXtXtXtXtXtXtXtXtX",
"tXtXtXtXtXtXtXtXtXtXtXtXtXtXtXtXtXtXtXtX;X>X,X,X9 , @ 4 m Z Z C Z Z Z Z i.i.y.u.S S C m 8 3 3 g -X-X,X-XwXtXtXtXtXtXtXtXtXtXtXtX",
"tXtXtXtXtXtXtXtXtXtXtXtXtXtXtXtXtXtXyXqXtXtXyXqX5   O @ m Z Z m Z Z C C u.r.r.r.S S C b @     5 2XyXtXtX7XtXtXtXtXtXtXtXtXtXtXtX",
"tXtXtXtXtXtXtXtXtXtXtXtXtXtXtXtXtXtXtXtXtXyXyX7X9     @ m M Z b Z Z Z C i.u.u.y.S A C Z @     u yXtXtXtXtXtXtXyXtXtXtXtXtXtXtXtX",
"tXtXtXtXtXtXtXtXtXtXtXtXtXtXtXtXtXqXyXtX7XtXtX,X6     o M m A Z b N N C y.r.r.y.V V b Z 8 5 0 x ,XtXtXqXtXtXyXtXtXtXtXtXtXtXtXtX",
"tXtXtXtXtXtXtXtXtXtXtXtXtXtXtXyX,X,X-X].~.~.U.U.e   O p ..#.-.X.e O @ s O.#.-.X.9 ,   5 (..X/._.tXtXtXtXtXtXtXtXtXtXtXtXtXtXtXtX",
"tXtXtXtXtXtXtXtXtXyXtXtXyXtXtXtX-X-X>X-X~.U.U.U.:   X < $.>.4.;.-   X < $.2.1.=.=   . 0 (.@X,X>XyXtXrXyXtXtXqXtXtXtXtXtXtXtXtXtX",
"tXtXtXtXtXtXtXtXtXyXtXtXtXtXtXtX>X(.-X/.~.U.~.B.4 O X # -.#.+.+.> O X + @.+.+.+.0     # /.,XqX@XtXtXtXtXtXtXyXtXtXtXtXtXtXtXtXtX",
"tXtXtXtXtXtXtXtXtXtXtXtXrXyXtXyX;X/.-X>XU.P.U.P.u & & y *.-.#.O.u & ; y *.,.>.@.i # = h ~.-X>X].yXtXyXqXtXtXtXtXtXtXtXtXtXtXtXtX",
"tXtXtXtXtXtXtXtXtXtXtXyX>X>X>X,XU.~.U.P.g # = g 3.6.q.<.y . & e 3.6.q.,.y   & 9 x.N.x.x.(.~.U.~.;X>X,X>XtXtXyXtXtXtXtXtXtXtXtXtX",
"tXtXtXtXtXtXtXtXtXtXtXyX,X-X-X/.U.~.U.U..     9 8.8.9.6.: X > 3 8.8.w.6.= O < p N.P.B.V.P.).P.(..X,X-X,XyXtXtXtXtXtXtXtXtXtXtXtX",
"tXtXtXtXtXtXtXtXtXtXtXtX>X,X,X-X~.U.P.P.# . O # 0.w.e.6.2     ; 0.w.e.6.2     : N.B.N.B.U.~.U.U.,X,X-X>XtXtXtXtXtXtXtXtXtXtXtXtX",
"tXtXtXtXtXtXtXtXtXyXtXyX:X-X,X-X~.U.~.~.9 @ 0 u 0.w.w.5.l # = e 6.9.w.5.s < , r N.N.B.B.U.U.~.U.,X,X-X>XtXtXtXtXtXtXtXtXtXtXtXtX",
"tXtXtXtXtXtXtXtXtXtXtXtXtXtXtXtX;X-X-X.XU.P.P.P.B.B.B.N.N.x.x.x.B.B.B.N.x.x.x.x.U.U.U.~./.,X-X-XtXtXtXtXtXtXtXtXtXtXtXtXtXtXtXtX",
"tXtXtXtXtXtXtXtXtXtXtXtXtXtXtXtX,X,X>X-X~.).~.~.B.N.B.B.N.B.B.B.B.B.B.B.B.B.B.B.U.~.U.~.-X,X-X>XtXtXtXtXtXtXtXtXtXtXtXtXtXtXtXtX",
"tXtXtXtXtXtXtXtXtXtXtXtXtXtXtXtX-X,X,X@X~.U.U.U.N.N.N.N.B.B.B.B.N.N.N.B.B.B.B.B.P.U.U.U./.-X@X-XtXtXtXtXtXtXtXtXtXtXtXtXtXtXtXtX",
"tXtXtXtXtXtXtXtXtXtXtXtXtXtXtXtX>X,X>X,X~.~.~.~.B.B.S.B.B.B.B.B.B.B.B.B.B.P.Z.B.~./././.-X>X-X>XtXtXtXtXtXtXtXtXtXtXtXtXtXtXtXtX",
"tXtXtXtXtXtXtXtXtXtXtXtXtXtXtXtXyXqXtXtXqXyXtXyXtXtXtXtXyXwXrXyXtXyXtXtXwXwXtXyXqXyXqXqXtXtXyXtXtXtXtXtXtXtXtXtXtXtXtXtXtXtXtXtX",
"tXtXtXtXtXtXtXtXtXtXtXtXtXtXtXtXtXtXtXtXtXtXtXtXtXtXtXtXtXtXtXtXtXtXtXtXtXtXtXtXtXtXtXtXtXtXtXtXtXtXtXtXtXtXtXtXtXtXtXtXtXtXtXtX",
"tXtXtXtXtXtXtXtXtXtXtXtXtXtXtXtXtXtXtXtXyXyXtXqXyXtXtXyXtXtXtXtXyXtXyXtXtXtXtXtXtXtXtXyXtXtXyXtXtXtXtXtXtXtXtXtXtXtXtXtXtXtXtXtX",
"tXtXtXtXtXtXtXtXtXtXtXtXtXtXtXtXtXtXtXtXtXtXtXtXtXtXtXtXtXtXtXtXtXtXtXtXtXtXtXtXtXtXtXtXtXtXyXtXtXtXtXtXtXtXtXtXtXtXtXtXtXtXtXtX"
};
