/* XPM */
static char *_c0ff03d187d458997fa5247ef8f02fbN0Px07Mj4gcKzaab[] = {
/* columns rows colors chars-per-pixel */
"64 64 176 2 ",
"   c None",
".  c #9A6E64",
"X  c #9C7167",
"o  c #9D736A",
"O  c #9E7771",
"+  c #9F7871",
"@  c #A57B67",
"#  c #A37A6C",
"$  c #A57D70",
"%  c #AA8065",
"&  c #AA806D",
"*  c #B28663",
"=  c #B48966",
"-  c #B18568",
";  c #B48A6B",
":  c #A68176",
">  c #AD8473",
",  c #AE8976",
"<  c #A8867D",
"1  c #AF8D79",
"2  c #B28D7C",
"3  c #BC9677",
"4  c #BD9874",
"5  c #B2927C",
"6  c #BB967C",
"7  c #BC997B",
"8  c #C09D75",
"9  c #C09F7A",
"0  c #C2A077",
"q  c #C2A179",
"w  c #B59180",
"e  c #B59984",
"r  c #B99C84",
"t  c #B3958E",
"y  c #B6998F",
"u  c #BA9B8A",
"i  c #B39690",
"p  c #B69A90",
"a  c #B99D94",
"s  c #B99F98",
"d  c #BAA086",
"f  c #BDA28F",
"g  c #BBA191",
"h  c #BBA199",
"j  c #C29F84",
"k  c #C5A485",
"l  c #C9AD84",
"z  c #C4A389",
"x  c #C6A98D",
"c  c #CAAC8D",
"v  c #CCB28C",
"b  c #C3AB92",
"n  c #C9AD94",
"m  c #C2A99D",
"M  c #CBB594",
"N  c #CBB49D",
"B  c #CCBA98",
"V  c #D3B594",
"C  c #D4BE95",
"Z  c #D0BA9D",
"A  c #DBBF9B",
"S  c #C3ADA0",
"D  c #C6B2A9",
"F  c #C9B6AC",
"G  c #CCB9AD",
"H  c #D2BBA7",
"J  c #D2BEAB",
"K  c #CEBDB4",
"L  c #D1BFB3",
"P  c #D6C396",
"I  c #D4C19C",
"U  c #DCC19C",
"Y  c #DAC99C",
"T  c #DFC6A0",
"R  c #DDCBA4",
"E  c #D5C2AC",
"W  c #DBCFA9",
"Q  c #DDD1A8",
"!  c #D4C3B4",
"~  c #D8C6B3",
"^  c #D9C9B6",
"/  c #D1C2B8",
"(  c #D6C9BF",
")  c #DDCFBE",
"_  c #DFD1BF",
"`  c #E1C7A1",
"'  c #E6CCA4",
"]  c #E8CFA6",
"[  c #E2D6A6",
"{  c #E9D0A7",
"}  c #E2D5A9",
"|  c #EAD3A9",
" . c #E4D9AE",
".. c #ECDAAE",
"X. c #E5DEB2",
"o. c #EDDEB1",
"O. c #E7E1B4",
"+. c #EBE3B4",
"@. c #EEE7B8",
"#. c #EFEBB9",
"$. c #F1E3B5",
"%. c #F0E7B8",
"&. c #F2EDBC",
"*. c #F3F1BF",
"=. c #D7CBC2",
"-. c #D8CCC2",
";. c #DDD1C2",
":. c #DFD7CC",
">. c #E2D7C5",
",. c #E3DBCD",
"<. c #E5DFD4",
"1. c #F3E6C4",
"2. c #F3ECC3",
"3. c #F3E7CB",
"4. c #F3EBCC",
"5. c #F3F3C1",
"6. c #F7F8C4",
"7. c #F8FAC6",
"8. c #F5F5CD",
"9. c #F4F3CC",
"0. c #F6F8CA",
"q. c #F7F9CD",
"w. c #F7F9CD",
"e. c #E5E0D4",
"r. c #E7E2D6",
"t. c #E5E0D4",
"y. c #E9E3D3",
"u. c #E9E3D4",
"i. c #EAE4D5",
"p. c #E9E4D4",
"a. c #E9E6DB",
"s. c #EAE7DB",
"d. c #EAE7DB",
"f. c #ECE9DB",
"g. c #EDE9DB",
"h. c #EEEADB",
"j. c #ECE9DB",
"k. c #F3EAD2",
"l. c #F3EED0",
"z. c #F3EDD7",
"x. c #F3EFD7",
"c. c #F3EDD4",
"v. c #F3EFD8",
"b. c #F3EFDC",
"n. c #F3F0D2",
"m. c #F6F7D1",
"M. c #F5F6D2",
"N. c #F3F1D5",
"B. c #F3F2D7",
"V. c #F5F3D5",
"C. c #F3F4D6",
"Z. c #F4F4D7",
"A. c #F3F3D4",
"S. c #F7F9D1",
"D. c #F6F8D5",
"F. c #F6F8D4",
"G. c #F5F7D9",
"H. c #F3F0DD",
"J. c #F3F2DD",
"K. c #F3F2DE",
"L. c #F3F4DD",
"P. c #F3F4DC",
"I. c #F2F2E5",
"U. c #F2F3E5",
"Y. c #F3F3E6",
"T. c #F2F3E6",
"R. c #F2F3E5",
"E. c #F5F7EA",
"W. c #F7FAEE",
"Q. c #F7FBEF",
"!. c #F6FAEE",
"~. c #F7FAEE",
"^. c #F8FBEE",
"/. c #F9FCEF",
"(. c #F7FBF0",
"). c #FBFFF4",
/* pixels */
"                                                                                                                                ",
"                                                                                                                                ",
"                                                                                                                                ",
"                                                                                                                                ",
"                                                  Q.Q.Q.Q.Q.Q.Q.Q.Q.Q.Q.Q.Q.Q.                                                  ",
"                                                Y.Y.Y.Y.Y.Y.Y.Y.Y.Y.Y.Y.Y.Y.Y.Y.                                                ",
"                                                i.u.y.y.y.y.y.y.y.y.y.y.y.y.u.i.                                                ",
"                                              ,.) ^ ~ ~ ~ ~ ~ ~ ~ ~ ~ ~ ~ ~ ^ ) ,.                                              ",
"                                          Q.g.;.H n z z z z z z z z z z z z n H ;.g.Q.                                          ",
"                                        Q.Y.u.^ n 6 ; ; ; ; ; ; ; ; ; ; ; ; 6 n ^ u.Y.Q.                                        ",
"                                        g.y.>.E n 3 = * = = = = = = = = * = 3 n E >.y.g.                                        ",
"                                      ,.;.^ E Z c k q q q q q q q q q 0 0 q k n B E ^ ;.,.                                      ",
"                                  Q.g.;.H n x c M C P P P P P P P P P P P P C M c x n H ;.g.^.                                  ",
"                                Q.Y.y.^ n 7 3 k C } +.+.+.+.+.+.+.+.+.+.+.+.} C k 3 7 n ^ y.Y.Q.                                ",
"                                g.y.>.E x 3 4 l Y +.*.5.5.5.5.5.5.5.5.6.6.5.+.Y l 4 3 z J ;.e.s.                                ",
"                              ,.;.^ E N c k l C [ #.5.6.6.5.5.9.8.M.S.S.q.6.#.[ C l k x N G / =.,.                              ",
"                          Q.g.;.H n x c v C Y [ +.&.5.5.5.2.2.9.V.G.G.F.q.6.&.+.[ Y C n f a h D =.s.^.                          ",
"                        Q.Y.y.^ n 7 3 k C } +.#.&.*.5.2.2.2.3.4.b.J.L.Z.8.5.*.&.#.+.Q M e < < s / <.Y.^.                        ",
"                        g.u.>.E x 3 4 l Y +.5.6.6.5.5.2.2.1.1.4.c.J.J.N.9.5.5.5.5.*.O.I r : : y F ;.e.s.                        ",
"                      ,.;.^ E Z c k l C [ #.6.0.8.8.9.4.3.1.1.3.k.c.c.A.9.5.5.5.6.5.@.R x 6 2 u m G / -.:.                      ",
"                  Y.i.) H n n c M C Y [ +.&.6.8.M.C.N.l.3.1.1.1.3.4.4.4.2.5.5.5.5.5.#. .I n z u u p h D ( e.Y.                  ",
"                Q.Y.u.^ n 6 3 k C } +.#.&.*.5.8.C.L.J.c.4.1.1.1.1.1.3.3.2.5.5.5.5.5.&.+.| T V z 2 : < s / e.Y./.                ",
"                (.R.u.~ z ; = q P +.5.6.6.5.9.A.L.U.I.b.c.4.1.1.1.1.2.2.2.5.5.5.5.5.&.%.o.| A z > X O i K e.R./.                ",
"                ).E.i.~ z - * 8 P +.6.0.q.8.A.Z.U.R.Y.I.b.c.4.3.3.2.2.&.2.5.5.5.5.5.&.%.$.| U z & . o t K e.E.).                ",
"                ).E.i.~ z - * 8 P +.6.q.F.Z.Z.L.R.R.Y.Y.I.b.c.l.4.2.2.&.*.5.5.5.5.5.&.%.$.| U z & . o t K r.E.).                ",
"                Q.Y.y.~ z ; = q P +.5.M.G.L.U.R.R.R.R.Y.Y.I.J.N.9.5.5.*.*.5.5.5.5.5.&.%.+.| U z > X O t K <.Y.^.                ",
"                g.u.>.E x 3 4 l Y +.5.8.G.J.I.Y.Y.R.R.R.R.U.J.N.9.5.5.*.*.5.5.5.5.5.&.%.o.| U x 2 $ : y F ;.e.s.                ",
"              ,._ ^ E Z n l v P [ @.5.9.n.b.b.I.Y.Y.R.R.U.L.C.A.9.5.5.*.*.5.5.5.5.5.&.%.o.| ` V z 6 w u m F / =.:.              ",
"          Y.i.) H n c c V P Y } +.#.5.5.4.4.c.b.I.Y.R.U.Z.A.9.9.5.5.5.*.5.5.5.5.5.5.&.%.o.| ' U V c z u u y h D ( e.Y.          ",
"        Q.Y.u.^ n 6 3 k C } +.#.&.*.5.2.3.3.4.c.b.I.U.L.A.9.5.5.5.5.5.5.5.5.5.5.5.5.&.@.o.| ' ' ` U V z 2 : < s / e.Y./.        ",
"        Q.Y.y.~ z ; ; 9 P +.*.5.5.5.5.2.2.2.3.4.c.J.J.C.9.5.5.*.*.5.5.5.5.5.5.*.*.&.%.+...| { { | ' A z > X O i K e.Y./.        ",
"        ^.Y.y.! u & % 7 I +.5.7.6.5.5.&.&.&.2.4.l.N.N.A.9.5.*.*.*.5.5.5.5.5.*.&.%.@.+.o...| { | | | U k > . o t K e.Y./.        ",
"        /.Y.e.L u # @ 6 C +.5.7.6.5.5.*.&.2.2.2.9.9.9.9.5.5.*.*.*.5.5.5.5.5.&.%.@.o...| | { { | | { U k > . o t K e.Y./.        ",
"        /.Y.e.K y $ # 5 B X.5.6.5.5.5.5.5.5.5.5.5.5.5.5.5.5.5.5.5.5.5.5.5.5.&.%.o...| { { { { | | ] U z > X O t K e.Y./.        ",
"        /.Y.e.K t O o 5 B X.*.5.5.5.5.5.5.5.5.5.5.5.5.5.5.5.5.5.5.5.5.5.5.5.&.@.o.| ] ] ] ] ] | | ] U z > X O t K e.Y./.        ",
"        /.Y.<.K t O o 5 B X.*.5.5.5.5.5.5.5.5.*.*.*.*.*.*.5.5.5.5.5.5.5.5.5.&.@...| ] ' ] ] ] | | ] U z > X O t K e.Y./.        ",
"        /.Y.<.K t O o 5 B X.*.5.5.5.5.5.5.5.5.5.*.*.*.*.5.5.5.5.5.5.5.5.5.5.&.@...| ] ' ] ] ] | | ] U z > X O t K e.Y./.        ",
"        /.Y.e.K t O o 5 B X.*.5.5.5.5.5.*.5.5.5.5.5.5.5.5.5.5.5.5.5.5.5.5.5.&.@...| ] ] ] ] ] | | ] U z > X O t K e.Y./.        ",
"        /.Y.e.K t O o 5 B X.*.5.5.5.5.5.5.5.5.5.5.5.5.5.5.5.5.5.5.5.5.*.*.&.%.+...| ] ] ] ] ] | | ] U z > X O t K e.Y./.        ",
"        /.Y.e.K t O o 5 B X.*.5.5.5.5.5.5.5.5.5.5.5.5.5.5.5.5.5.5.5.*.&.%.%.+.o...| ] ] ] ] ] | | ] U z > X O t K e.Y./.        ",
"        /.Y.e.K t O o 5 B X.*.5.5.5.5.5.5.5.5.5.5.5.5.5.5.5.5.5.5.5.*.%.@.o...| | { ] ] ] ] ] | | ] U z > X O t K e.Y./.        ",
"        /.Y.e.K t O o 5 B X.*.5.5.5.5.5.5.5.5.5.5.5.5.5.5.5.5.5.5.5.&.%.o...| { { { ] ] ] ] ] | | ] U z > X O t K e.Y./.        ",
"        /.Y.e.K t O o 5 B X.5.6.5.5.5.5.5.5.5.5.5.5.5.5.5.5.5.*.*.&.%.+...| ] ] ] ] ] ] ] ] { | | ] U z > X O t K e.Y./.        ",
"        /.Y.<.K t o X 5 B O.5.7.6.5.5.5.5.5.5.5.5.5.5.5.5.5.*.&.%.%.+.o.| { ] ' ] ] ] ] ] ] { | | { U k > . o t K e.Y./.        ",
"        /.Y.<.K t o X 5 B +.5.7.6.5.5.5.5.5.5.5.5.5.5.5.5.5.*.%.@.o...| | { ] ] ] ] ] ] ] ] { | | | U k > . o t K e.Y./.        ",
"        /.Y.e.K t O o 5 B X.*.5.5.5.5.5.5.5.5.5.5.5.5.5.5.5.&.%.o...| { { ] ] ] ] ] ] ] ] ] ] | | ' A z > X O i K e.Y./.        ",
"        /.Y.e./ s < < e M W O.#.&.*.5.5.5.5.5.5.5.5.5.5.*.&.%.+...| { ] ] ] ] ] ] ] { { { ] ' ' ` U V z 2 : < s / e.Y./.        ",
"          Y.e.( D h a g b M I Q O.&.5.6.6.5.5.5.5.5.5.*.&.%.$.o...| { { { | | | | | | | | | ' U V c z u u p h D ( e.Y.          ",
"              :.-./ G S g e d M Q #.5.7.7.6.6.6.6.5.5.&.%.$.o...| | | | | | | | | | | | | | ` V j 5 2 u m G / -.:.              ",
"                s.e.;.F p < , d I O.*.5.5.5.5.5.5.*.&.@.o...| { ] ] ' ' ' ] ] ] ] ] ] { | ' U c 5 $ : y F ;.e.s.                ",
"                ^.Y.<./ s < < e M W X.+.O.X.X.X.X.X. .} R U U A A U U U U U U U U U U U U A V z 2 : < s / e.Y.^.                ",
"                  ^.s.=.D s p g b M B B B B B B B B M M x z z z z z z z z z z z z z z k k z z u u y s D =.s.^.                  ",
"                      ,.=./ F S g e 5 5 5 5 5 5 5 5 5 1 , > > > > > > > > > > > > > > > > > 2 u m F / =.,.                      ",
"                        s.<.;.G a < o X X o o o o o o o X X X X X X X X X X X X X X X . . X : p G ;.e.s.                        ",
"                        ^.Y.e./ h < O o o O O O O O O O O O O O O O O O O O O O O O O o o O < h / e.Y.^.                        ",
"                          ^.s.-.D s t t t t t t t t t t t t t t t t t t t t t t t t t t t i s D -.s.^.                          ",
"                              :.( / K K K K K K K K K K K K K K K K K K K K K K K K K K K K / ( :.                              ",
"                                e.e.e.<.<.e.e.e.e.e.e.e.e.e.e.e.e.e.e.e.e.e.e.e.e.e.e.e.e.e.e.e.                                ",
"                                Y.Y.Y.Y.Y.Y.Y.Y.Y.Y.Y.Y.Y.Y.Y.Y.Y.Y.Y.Y.Y.Y.Y.Y.Y.Y.Y.Y.Y.Y.Y.Y.                                ",
"                                  /./././././././././././././././././././././././././././././.                                  ",
"                                                                                                                                ",
"                                                                                                                                ",
"                                                                                                                                ",
"                                                                                                                                "
};
