/* XPM */
static char *_757aaaafcb341f9f0d7c7e99ed74444GDa20ZToflv74pg3[] = {
/* columns rows colors chars-per-pixel */
"64 64 155 2 ",
"   c #5F2700",
".  c #5E2C00",
"X  c #642C00",
"o  c #692F01",
"O  c #643303",
"+  c #6B3302",
"@  c #6E3B06",
"#  c #65350A",
"$  c #6A360A",
"%  c #67380E",
"&  c #6C3B0C",
"*  c #713906",
"=  c #713709",
"-  c #743D0C",
";  c #6C3C12",
":  c #6E3D18",
">  c #733E12",
",  c #783F11",
"<  c #703E1A",
"1  c #75420E",
"2  c #79420E",
"3  c #7F480E",
"4  c #6F4016",
"5  c #754314",
"6  c #7C4514",
"7  c #7C4916",
"8  c #75441A",
"9  c #7C4619",
"0  c #77481D",
"q  c #7C4A1B",
"w  c #764523",
"e  c #794722",
"r  c #7D4C22",
"t  c #7F4E29",
"y  c #7F5025",
"u  c #804616",
"i  c #814A16",
"p  c #804719",
"a  c #844C1B",
"s  c #875115",
"d  c #885216",
"f  c #85511C",
"g  c #8C551F",
"h  c #8A521D",
"j  c #8F581D",
"k  c #905A1E",
"l  c #814C20",
"z  c #834F20",
"x  c #824F22",
"c  c #854F20",
"v  c #874F20",
"b  c #874E23",
"n  c #854E21",
"m  c #884F22",
"M  c #884F24",
"N  c #884E26",
"B  c #894F21",
"V  c #835120",
"C  c #845020",
"Z  c #845021",
"A  c #865021",
"S  c #865220",
"D  c #855122",
"F  c #855223",
"G  c #865223",
"H  c #875323",
"J  c #865423",
"K  c #875125",
"L  c #855225",
"P  c #865326",
"I  c #875524",
"U  c #875427",
"Y  c #845223",
"T  c #895120",
"R  c #885021",
"E  c #885321",
"W  c #8A5221",
"Q  c #885223",
"!  c #8B5322",
"~  c #895420",
"^  c #885422",
"/  c #895523",
"(  c #8A5523",
")  c #8D5620",
"_  c #8E5721",
"`  c #8D5522",
"'  c #8C5423",
"]  c #8C5723",
"[  c #8E5623",
"{  c #895324",
"}  c #885226",
"|  c #885425",
" . c #8A5425",
".. c #885625",
"X. c #8B5624",
"o. c #8B5725",
"O. c #895526",
"+. c #8B5526",
"@. c #895726",
"#. c #8A5627",
"$. c #8D5524",
"%. c #8C5627",
"&. c #8C5423",
"*. c #865827",
"=. c #8F5822",
"-. c #8A5827",
";. c #8D5824",
":. c #8D5826",
">. c #8F5A26",
",. c #8E5924",
"<. c #84542A",
"1. c #885528",
"2. c #8B5529",
"3. c #895629",
"4. c #8A572A",
"5. c #8D5728",
"6. c #8D5729",
"7. c #8C562A",
"8. c #8E5628",
"9. c #87582A",
"0. c #8B582B",
"q. c #8E5829",
"w. c #8C5A29",
"e. c #8E582A",
"r. c #8F592A",
"t. c #8F592B",
"y. c #8D5B2A",
"u. c #8C592C",
"i. c #8D5A2D",
"p. c #8E5B2E",
"a. c #8F5C2F",
"s. c #8C5A2B",
"d. c #905923",
"f. c #915A24",
"g. c #905B27",
"h. c #915A25",
"j. c #905628",
"k. c #905A2B",
"l. c #915C28",
"z. c #925D29",
"x. c #915B2C",
"c. c #905A2C",
"v. c #925C2D",
"b. c #945E2F",
"n. c #935B2B",
"m. c #845430",
"M. c #8E5E30",
"N. c #905D30",
"B. c #935E31",
"V. c #995F31",
"C. c #92602F",
"Z. c #96612C",
"A. c #98602D",
"S. c #946133",
"D. c #9A6233",
/* pixels */
"- - , 5 6 6 6 6 6 6 6 6 6 6 5 , 6 9 9 , , 6 a %.h h g h i i i i a p p i 6 6 u p 5 2 6 a Q a a h h h g g ] ] g g ] ] ] =.d.d.d.f.",
"5 5 5 , - = = + 6 6 6 6 9 9 6 9 6 9 9 , - , 6 p 6 i i i i 3 3 6 a p p 6 6 i u i 6 5 u Q %.Q Q %.a f h h g ] ] =.g g g g g g g g ",
"5 5 5 6 6 p p p 5 6 6 6 9 9 p p 9 p 9 9 6 , 5 6 5 6 i i 3 3 6 i i i 6 6 6 6 6 6 5 2 6 a Q a a Q a a a p i a a h ] ] ] ] ] ] ] ] ",
"+ + @ = - 5 6 6 a a a a c B Q B c M M c a p p p p a h h a i a a a a a a a a a a p 6 p Q Q a a Q a a i 6 2 6 6 i 5 5 2 2 2 2 2 2 ",
"A c a p q q q q x.x.k.k.r.r.r.6.6.6.2.6.6.6.r.6.{ #.:.] h f f f ( { K A Q { #.#.%.Q Q %.%.A a Q a a 7 6 6 7 a a i i i i i i i i ",
"v.v.r.6.6.6.r.k.%.#.#.{ Q A A A 2.{ K { 6.r.x.r.Q #.%.( f a a a p q q q q p p a Q a a c a 9 6 p p 7 i a a g :.f.:.:.:.f.l.l.l.l.",
"6 5 5 5 5 6 q a q q q q 6 6 7 6 l 9 5 5 q a a z a z A A a q q q 6 6 6 6 6 6 q q p 6 6 q q 6 6 q q a a f A ( #.#.6 6 7 7 q a a a ",
"#.A a q 6 6 6 6 6 6 6 q q q q q 6 > $ $ & - 5 5 9 q a a a q a a A A z z A A #.#.c q q A A a A #.A f f f a a 7 7 7 7 q a f A ( #.",
"C.r.V q 5 5 5 7 f 7 5 1 5 6 5 5 & & > 5 q z K 1.y.u.2.s.M.N.u.s.u.2.2.2.u.u.u.u.s.s.2.2.I K K A a I -.#.-.r.s.J 5 5 5 7 q q q q ",
"q 6 5 1 1 5 5 6 - & O O O O O O O O O $ $ & > > q q q 0 0 9 8 5 0 5 5 5 9 q 9 9 q q q q 9 8 5 5 q f f 6 5 5 5 & O O $ & 5 7 q a ",
"q 7 7 7 7 q q q V V q q 5 5 5 q 5 5 & & ; ; ; ; 8 8 8 8 < ; ; ; & % # # & ; & & < ; ; ; & % # O $ & & $ $ & & $ 5 5 5 5 5 q q q ",
"q q q q q q 7 5 5 q q 5 1 & 5 5 q q q q q q 8 8 8 0 r r 8 : : : : ; & & ; ; ; ; ; ; ; % # # O O O O O . O $ & $ q q 5 5 5 5 5 5 ",
"5 7 7 7 5 5 & & $ & 5 1 & & 1 5 7 5 5 5 5 5 8 8 8 0 e e 0 8 < : 8 5 : : 8 8 8 8 8 5 < : ; ; & $ & & $ O . O O O O # $ & 5 5 8 0 ",
"q q q y y y q q q V Y I I *.s.y.q q q q r r r r r e e t t t w < < ; ; ; : 5 5 : 8 8 8 8 8 5 < ; < 5 5 5 5 8 q 5 5 8 8 q q q r r ",
"Y Y *.*.*.s.s.y.Y Y Y I s.s.s.s.s.s.s.s.i.i.i.i.<.t r t m.<.w : ; % % % ; ; ; ; 4 4 4 4 4 4 4 4 ; 5 0 q r 9.i.1.i.i.9.1.*.*.Y Y ",
"7 5 7 7 7 q q q I Y V I s.s.*.Y *.*.*.I I *.<.<.9.t 0 r <.<.8 # ; ; % % ; : ; ; ; & ; ; ; ; ; ; & 5 8 5 8 q q 5 5 8 q 0 q r y V ",
"& 6 f A a q q q q 7 5 5 5 5 6 7 q q 0 q q 0 q 0 y y Y 1.1.<.*.<.1.t r r Y y 0 4 8 8 8 8 8 5 4 < 8 5 5 5 5 5 > > q r q 5 9 V z 5 ",
"6 6 6 6 q q q 6 q q q q q a a f Y Y y V y Y *.*.V V Y Y *.<.1.9.i.<.r r t y r 0 8 8 8 8 0 0 0 0 0 9 9 9 9 9 6 5 9 q 9 5 9 K z 9 ",
"a 6 & & 5 6 6 5 6 6 q q f A A A M.y.9.I Y Y *.I r r r V Y 1.s.i.9.t 8 8 0 r r r 8 8 8 0 0 r r r 5 5 5 5 5 5 5 > > < , > 5 q q 5 ",
"& O . . . X O X - 5 6 q q a a q a 0 5 ; & # # # O O $ & 4 5 5 5 Y r 0 0 r r t r r t t t t t t r > , 5 5 5 , > > > < , , 5 6 6 5 ",
"5 6 6 5 - - - 5 5 5 6 q q q 6 6 a q 5 5 & & & & $ & 5 q q q q 8 r r r Y <.1.<.Y i.i.1.<.Y r r 0 9 q q q q 9 6 5 q 9 9 9 6 5 5 6 ",
"a A r.r.A a a A 6 6 6 q q q q q q q 0 q q q q q 5 q V I I *.y q 5 8 0 r x x t r 1.<.Y r 0 8 5 > q q q q q 6 5 5 6 5 5 6 5 & & > ",
"$ & & - - & & & 6 6 6 q q a a A & & 1 5 5 5 1 1 & & - 1 - - & & > 5 5 9 9 q z V V z z q q q 0 q q q q q 6 5 5 - 5 - - 5 - $ $ 1 ",
"5 - & - 5 6 5 - 5 5 5 5 q a A #.-.r.y.v.y.-.A a s.I f q q q a V q q q q q K u.N.i.u.u.y.N.N.S.S.A A A a a q 6 5 6 5 6 q 7 1 5 a ",
"v.y.v.v.v.v.v.v.#.I A A A #.r.v.:.r.l.v.l.l.r.:.#.#.#.( ( A f A 6 6 q q q q q 9 a a V A #.#.r.r.v.:.#.r.C.C.:.f l.v.v.l.v.l.y.r.",
"q q q q 6 6 6 6 q q q 6 6 q a A 7 7 q a a q 7 7 6 6 6 7 7 7 q q q q q a a q q q 9 9 q q q a a a f 7 1 1 6 6 5 - 7 7 7 q q 7 7 7 ",
"6 5 5 5 - - & & q q 6 6 6 6 q q 6 6 6 7 7 6 6 6 2 2 2 6 7 a f Q c A A A c a p p c a a a a a a a f 6 @ + @ - - - - 1 1 1 1 1 1 1 ",
"6 6 6 6 5 5 5 5 q q 6 6 q q a a a a a a a a a a 7 7 7 7 a f ] :.%.%.#.{ A c a a %.%.#.#.{ Q A f h q 1 - - 1 6 6 1 1 6 6 7 q q q ",
"q q q q q q q q 6 6 6 q q a a f a a a a a a a a i i i i i a a h ] ! Q h a p p p a p p p i 6 6 6 6 6 1 1 1 6 6 6 6 6 7 q a f f f ",
"a a A A A A A A a a a A A #.#.( h h a a a a h h a a a a a a a a h a a i 6 6 6 6 5 5 5 5 6 6 5 5 2 2 6 6 7 7 7 7 a f f h ( ] ] ] ",
"r.r.r.#.#.#.#.#.r.r.r.r.r.r.#.#.] g h h h h g g g ] =.d.=.g h a Q h a p i 6 i p u i p p a a a a a f f f f f f f f g ( =.:.>.>.>.",
"6.#.#.( A f c a 6.#.%.( Q f a a a a i i i i a f h g =.f.d.g f a f.%.Q a a a h Q a a a h ( %.%.=.] ] g f f f h g a f f g g g g g ",
"i 7 i 7 i 7 p i a a Q :.k.:.%.] a a h h h ] ] %.Q ! Q h h h h h Q h h a a a a a p i i i i i i p 6 a h f 6 1 2 6 i 7 6 6 6 7 i a ",
"6 6 i i p a h h ] ] k.b.A.A.V.n.A.b.n.n.l.f.k.n.n.n.l.l.f.f.f.f.%.%.] ] ] ] ] %.h Q h h h h Q Q i a h a 6 - - 2 2 2 2 2 2 6 6 u ",
"- - 2 6 i p a a a a h ] =.=.] ] ] ] ] h h h ! Q ] ] ] g ! h h h h a a a a h h h a a a a a a a a i a a i 2 - = - + + * = - - - - ",
"+ + + * - 2 2 5 - 2 2 6 6 6 6 6 - - - - 2 6 6 i i u u 6 6 6 6 6 i 6 6 6 6 6 6 6 2 2 2 2 2 2 2 5 6 6 i 6 - = = - - - 2 2 6 2 - - ",
"+ + + * * * * * - - - 2 2 2 2 2 * * * - - 2 6 u 6 6 6 6 6 6 2 2 u 6 5 2 2 - - 2 - - - = = - - - - 2 2 2 - - - 2 i i p a p i 6 2 ",
"- - - - - - - - 2 2 2 2 2 2 5 6 6 6 2 2 2 5 6 6 6 6 6 6 6 6 2 2 2 2 - - - - - - * * * * * * * * 2 2 2 2 2 6 6 u 6 6 6 6 6 6 2 2 ",
"i i i i i i i i 6 6 6 6 6 i i i 6 6 6 6 6 6 i i i i 6 6 6 6 6 6 2 2 - - 2 2 6 6 2 2 - - - - 2 2 i i 6 6 i i a a 2 2 2 2 2 5 6 6 ",
"a a a a a h h h ] ! h h h ! ] ] 6 6 6 i p a Q ] h h a a a a a a i i i p a h ] [ h h h a a h h h ! h a a a a f h p p i p a h ] f.",
"a a h h h Q ] ] h ] h i i h f.f.- - - - - 2 2 2 6 i a i 6 2 2 2 6 6 i p a a h h a h h h p i a h h a a Q ] ] f i h a a h h h h h ",
"Q Q Q h h h h a ] %.] a p h ] Q 6 6 6 6 6 6 u u 6 6 6 6 5 2 - - 2 2 5 6 6 6 i i 6 6 i 6 5 2 6 i h a i u 6 5 2 - i i i i i i a a ",
"a a a a a a a i h ] ] h h f.k.%.f.f.f.f.f.f.[ [ ] a i i a a p 6 6 6 6 i i i i i 6 6 6 6 2 2 6 6 i i i u 6 i a ! a a a a a a a a ",
"] [ f.f.n.b.A.A.%.f.f.] ] n.f.] f.f.f.f.%.] ] ] f.a i i a h a i p i i i p p i i 6 6 6 2 2 2 2 2 2 6 6 6 6 6 a h n.n.n.n.n.n.b.b.",
"6 6 6 i i a a a ] ] ! f h ] Q a a a a a a i i i h i 2 2 i a i 6 i 6 6 6 6 6 6 2 6 5 2 - - = * * 2 2 2 - * + + + 2 2 2 2 2 2 5 5 ",
"+ + + + + + o o + * * - i f.n.] [ [ ] ] ] ] ] ] f.] h h ] f.] Q a i 6 6 i a i 6 a i 6 5 6 6 2 2 6 6 6 6 6 6 * + + + + + + + + + ",
"a a i i 6 5 2 2 + + + + 6 ] l.] f.f.f.f.f.f.f.f.k.k.n.n.n.n.n.k.Q a i a h ] h a h a i a h ] Q h a 6 2 6 h ] h i a a a a a a h h ",
"i i i i i i i i h a 2 * - 6 6 = - - 2 2 5 2 5 5 5 6 p a p i i u a i 6 6 a h a 6 i 6 6 i Q %.f.%.a 2 + + 5 6 - + 5 2 5 6 6 6 6 6 ",
"s s h j f.f.d.g d g h h a a a a a 6 = + o o o o + + o o + + X   X o = - - - , 6 a a a a a p p u - - 5 5 6 6 6 5 + + + o + * 6 a ",
"k k j k k j i i 3 3 i i a a h h %.a 5 = + + + o o X X X + + + + = + o X X o + = j.j.j.j.j.%.&.&.V.b.b.k.{ a 6 6 = - - - - 6 a { ",
"k j j d h i 3 2 * * 2 3 i h ] ] k.%.c p p 6 6 5 p p 6 9 a Q %.6.&.a 6 - - , 6 6 &.&.&.&.&.&.B B Q Q Q Q a p 6 5 6 p a c Q Q %.k.",
"d s s s h h i i 2 3 6 i h ] f.n.x.k.k.k.b.b.k.6.%.Q a a a { k.x.a ! %.! a 6 6 6 p p p p p p 6 6 @ = - , 5 , - - 6 p Q %.%.%.%.%.",
"i i i i s h s i a a a h Q ! %.%.%.%.%.k.b.b.k.6.%.%.Q a a Q k.b.%.V.D.V.a 6 6 a 6 6 6 6 6 6 6 , 5 5 5 5 - - + + * - 6 a a p 6 6 ",
"3 2 2 2 3 3 2 2 i 6 6 6 6 6 6 6 Q Q a a Q c p 9 Q &.&.Q Q %.n.D.V.D.V.B - = 5 a , 6 6 6 5 , , , 2 2 5 2 - = + + + * - 2 - - - - ",
"3 3 2 2 3 3 2 2 6 6 6 6 6 6 6 6 %.Q B a a a p p 6 6 p 6 5 5 6 p a p , = + + = - 6 6 6 6 5 , , - + * - - 2 2 - - - 2 6 6 2 2 6 i ",
"g h s h g d.d.d.Q ] %.%.j.k.x.k.b.k.%.%.6.k.k.6.%.k.k.%.a p p p ! a a &.n.V.n.&.p p a a p p p u a a a h h h a a h h h h a a Q f.",
"j d.f.z.n.h.f.%.b.n.k.k.x.x.x.x.b.n.k.k.k.k.%.%.a { %.{ a p p a p p 6 6 6 6 p p a p p 6 6 6 6 u 2 6 i a a a i 6 i a %.n.n.h.] ] ",
"s s s h h f a a a a B c B c c c Q B a a a a a p a Q Q a p 6 9 p 6 6 6 6 6 p p a , - - - - - - - 2 6 i a a p i 6 6 6 i i i 6 6 6 ",
"g g g h h h ! ] %.%.6.%.&.B a p a p p p p a p 9 p p p 6 5 5 6 6 5 6 u p a B B B &.&.%.%.[ %.%.%.a h h g g g h h Z.z.d.] g =.d.h.",
"z.f.d.] ] f.k.n.D.D.D.V.c.{ a 9 p p 6 p p p p p 6 6 5 - - - 5 6 6 p a B &.&.&.! B Q &.%.j.[ %.! ] ] ] ] ] =.=.=.=.g h h g d.f.z.",
"Q h a a a a Q %.&.&.%.&.{ l 9 6 6 6 5 6 9 p p 6 a p 6 5 6 6 p p a a h B B B a a u p a a a a a a f h h h h h h h i i i i d j h i ",
"a a i i p p a a 6 6 p p l l p p p p p p c Q Q B %.Q a a B Q Q Q a a a a a p p 6 a a a B B B B h i i f h g g d d d.d.g d.z.d.h i ",
"h h h Q Q Q Q Q p p l c M { } } Q c c { j.k.k.k.%.Q c Q %.%.%.Q c a a a p p p p p u 6 6 6 6 6 6 i i h k d.d.d.g g h i h g g i 2 ",
"h ] %.f.k.[ %.&.6.%.{ { { { } { a a a c %.k.k.%.c a p a Q &.B a &.B B a a B B { ! B a a p p a a 2 3 i j g g g h z.=.d g z.Z.d.g "
};
