/* XPM */
static char *_648d4fda85b4182a69fda5fa17a08e3OiK08RDdapwUDHSY[] = {
/* columns rows colors chars-per-pixel */
"64 64 162 2 ",
"   c None",
".  c #754B5F",
"X  c #7C525F",
"o  c #647F5C",
"O  c #6B795C",
"+  c #797A5C",
"@  c #6D4663",
"#  c #704760",
"$  c #754C61",
"%  c #794F60",
"&  c #7D5561",
"*  c #84575E",
"=  c #865A5D",
"-  c #8C5E5C",
";  c #8F615D",
":  c #91635D",
">  c #976A5F",
",  c #996B5C",
"<  c #837958",
"1  c #A6765A",
"2  c #AD7D5C",
"3  c #805762",
"4  c #865B60",
"5  c #8C6263",
"6  c #916663",
"7  c #936963",
"8  c #9A6D63",
"9  c #9E7261",
"0  c #A27765",
"q  c #A67B64",
"w  c #AA7D65",
"e  c #A57B68",
"r  c #A97F6C",
"t  c #5F805C",
"y  c #63805C",
"u  c #7D9A5F",
"i  c #76A257",
"p  c #76A058",
"a  c #7CA459",
"s  c #7FA859",
"d  c #8A8C5A",
"f  c #978556",
"g  c #998756",
"h  c #9E8B5B",
"j  c #899557",
"k  c #809D59",
"l  c #9E9359",
"z  c #919A5F",
"x  c #A78159",
"c  c #AB835B",
"v  c #A38A5A",
"b  c #B4855F",
"n  c #A99A5D",
"m  c #B0905F",
"M  c #83A55D",
"N  c #83A95B",
"B  c #8BAF5C",
"V  c #95A45D",
"C  c #8EB35E",
"Z  c #92B55E",
"A  c #9CB35F",
"S  c #96B85F",
"D  c #AE8266",
"F  c #AE8A63",
"G  c #AB816D",
"H  c #B28564",
"J  c #B48965",
"K  c #BA8E65",
"L  c #B18769",
"P  c #B68C68",
"I  c #B98F6A",
"U  c #BE9267",
"Y  c #B49A64",
"T  c #BD926A",
"R  c #B28971",
"E  c #BA9276",
"W  c #BF9972",
"Q  c #BE9778",
"!  c #BF9879",
"~  c #91A765",
"^  c #9BAA69",
"/  c #93B561",
"(  c #97B860",
")  c #9CBC61",
"_  c #A6A460",
"`  c #A8A360",
"'  c #A5AC6F",
"]  c #B8AD68",
"[  c #A4B761",
"{  c #A2BE63",
"}  c #AFBE66",
"|  c #B8B266",
" . c #AFAF73",
".. c #B5AF77",
"X. c #B7AF78",
"o. c #BBB27A",
"O. c #C29666",
"+. c #C09569",
"@. c #C59B6C",
"#. c #C99F6D",
"$. c #C19574",
"%. c #C59E75",
"&. c #C89F70",
"*. c #C29B7B",
"=. c #CAA06D",
"-. c #C9A37E",
";. c #D1AA79",
":. c #C4B37C",
">. c #A5C364",
",. c #AAC666",
"<. c #ADC867",
"1. c #A6C368",
"2. c #ADC768",
"3. c #AFC968",
"4. c #B3C26A",
"5. c #B3CC6A",
"6. c #BACE6D",
"7. c #B7D06E",
"8. c #BFD36F",
"9. c #C1D470",
"0. c #C6DA73",
"q. c #C8A781",
"w. c #CCAA83",
"e. c #D2AE84",
"r. c #D2AD8A",
"t. c #CEB683",
"y. c #D2B585",
"u. c #DAB687",
"i. c #DBB589",
"p. c #DDBA8A",
"a. c #D6B490",
"s. c #DEBE92",
"d. c #E2BD8E",
"f. c #DFC39B",
"g. c #E1C59D",
"h. c #E2C49A",
"j. c #E4C99D",
"k. c #E4C99D",
"l. c #E2C7A0",
"z. c #E2C7A0",
"x. c #E5CAA0",
"c. c #E6CDA3",
"v. c #E4CAA2",
"b. c #E7D2AE",
"n. c #E9D1A9",
"m. c #EBD4AB",
"M. c #EAD3AC",
"N. c #EAD4AC",
"B. c #EFDBB4",
"V. c #EDDAB5",
"C. c #EEDAB4",
"Z. c #EFDDB8",
"A. c #EFDEBA",
"S. c #EFDDB9",
"D. c #F0DDB6",
"F. c #F0DDB6",
"G. c #F0DFBA",
"H. c #F0DEB8",
"J. c #F0DFBA",
"K. c #F2E3BF",
"L. c #F2E2BD",
"P. c #F2E2BE",
/* pixels */
"                                                        : : : : : : : :                                                         ",
"                                                - - - 7 E *.! ! ! ! *.E 7 - - -                                                 ",
"                                                r G r R i.d.d.d.d.d.d.i.R r G r                                                 ",
"                                        8 8 8 e e.p.p.u.y.t.t.t.t.t.t.y.u.p.p.e.e 8 8 8                                         ",
"                                : : ; 8 -.e.e.e.u.p.p.y.~ M M M M M M ~ y.p.p.u.e.e.e.-.8 ; : :                                 ",
"                        - - - 7 E *.Q *.i.d.d.u.' ^ ^ ^ { ( Z Z Z Z ( { ^ ^ ^ ' u.d.d.i.*.Q *.E 7 - - -                         ",
"                        r G r R i.d.d.p.o...X. .B s i s 6.5.>.>.>.>.5.6.s i s B  .X...o.p.d.d.i.R r G r                         ",
"                8 8 8 e e.p.p.u.y.t.y.:.M a N B ) ( N N 5.2.{ >.>.{ 2.5.N N ( ) B N a M :.y.t.y.u.p.p.e.e 8 8 8                 ",
"              8 -.e.e.e.u.p.p.y.~ M M M a ) 6.5.>.S N a >.( C Z Z C ( >.a N S >.5.6.) a M M M ~ y.p.p.u.e.e.e.-.8               ",
"              8 y.d.d.u.' ^ ^ ^ Z Z C N a 1.0.8.,.S N N 2.>.( ( ( ( >.2.N N S ,.8.0.1.a N C Z Z ^ ^ ^ ' u.d.d.y.8               ",
"              8 -.:.o. .M i a / ,.,.) B a ) 6.5.>.S N N 6.5.>.>.>.>.5.6.N N S >.5.6.) a B ) ,.,./ a i M  .o.:.-.8               ",
"              > P z p N B a / 9.9.3.) B a ( ,.>.>.S N N 5.2.{ >.>.{ 2.5.N N S >.>.,.( a B ) 3.9.9./ a B N p z P >               ",
"                > + u ) C a / 9.9.3.) B a { 8.6.>.S N a >.( C Z Z C ( >.a N S >.6.8.{ a B ) 3.9.9./ a C ) u + >                 ",
"                  O u >.Z a B <.<.,.) B a 1.0.8.,.S N N 2.>.( ( ( ( >.2.N N S ,.8.0.1.a B ) ,.<.<.B a Z >.u O                   ",
"                  y u { Z a B <.<.,.) B a ) 6.5.>.S N N 7.5.>.>.>.>.5.7.N N S >.5.6.) a B ) ,.<.<.B a Z { u y                   ",
"                  o u { Z a / 9.9.3.) B a ( ,.>.>.S N N 4.} [ [ [ [ } 4.N N S >.>.,.( a B ) 3.9.9./ a Z { u o                   ",
"                  o u { Z a / 9.9.3.) B a { 8.6.>.S N k v c c c c c c v k N S >.6.8.{ a B ) 3.9.9./ a Z { u o                   ",
"                  o u { Z a B <.<.,.) B a 1.0.6.n v g h q.r.r.r.r.r.r.q.h g v n 6.0.1.a B ) ,.<.<.B a Z { u o                   ",
"                  o u { Z a B <.3.,.) B j _ | ] W $.$.-.M.F.B.B.B.B.F.M.-.$.$.W ] | _ j B ) ,.3.<.B a Z { u o                   ",
"                  o u { Z a / 8.6.} A V F H H I l.m.n.M.Z.G.G.G.G.G.G.Z.M.n.m.l.I H H F V A } 6.8./ a Z { u o                   ",
"                  o u { Z a / 6.m c x F a.g.f.l.Z.L.L.Z.h.s.s.s.s.s.s.h.Z.L.L.Z.l.f.g.a.F x c m 6./ a Z { u o                   ",
"                  t u { l f h Y w.r.e.a.B.L.L.G.c.k.x.k.p.p.p.p.p.p.p.p.k.x.k.c.G.L.L.B.a.e.r.w.Y h f l { u t                   ",
"                  < d ` W $.$.*.M.F.B.B.N.N.N.n.p.p.p.u.*.! *.*.*.*.! *.u.p.p.p.n.N.N.N.B.B.F.M.*.$.$.W ` d <                   ",
"                H H H I l.m.n.M.Z.G.L.B.s.p.p.u.e.e.e.-.8 ; : : : : ; 8 -.e.e.e.u.p.p.s.B.L.G.Z.M.n.m.l.I H H H                 ",
"              H a.g.f.l.Z.L.L.Z.h.s.s.s.p.u.p.e.e 8 8 8 : ; : : : : ; : 8 8 8 e e.p.p.p.s.s.s.h.Z.L.L.Z.l.f.g.a.H               ",
"              J b.K.L.G.c.k.x.k.d.p.p.y.R G G r : - ; ; : : : : : : : : ; ; - : r G G R y.p.p.p.k.x.k.c.G.L.K.b.J               ",
"              w z.C.N.n.p.p.p.u.*.*.*.E 6 - - - ; ; ; ; ; ; ; ; ; ; ; ; ; ; ; ; - - - 6 E *.! *.u.p.p.p.n.N.C.z.w               ",
"              8 e.p.p.u.e.e.e.-.8 : : : : : : : : : : : : : : : : : : : : : : : : : : : : : : 8 -.e.e.e.u.p.p.e.8               ",
"              8 e.p.p.e.e 8 8 8 1 1 1 1 1 1 1 1 1 1 1 1 1 1 1 1 1 1 1 1 1 1 1 1 1 1 1 1 1 1 1 1 8 8 8 e e.p.p.e.8               ",
"                r G G G q w D H K K K K K K K K K K K K K K K K K K K K K K K K K K K K K K K K H D w q G G G r                 ",
"                - - = - J @.@.@.@.@.@.@.@.@.@.@.@.@.@.@.@.@.@.@.@.@.@.@.@.@.@.@.@.@.@.@.@.@.@.@.@.@.@.J - = - -                 ",
"                      & P +.+.+.+.+.+.+.+.+.+.+.+.+.+.+.+.+.+.+.+.+.+.+.+.+.+.+.+.+.+.+.+.+.+.+.+.+.+.J X                       ",
"                      X 1 2 2 2 2 2 2 2 2 2 2 2 2 2 2 2 2 2 2 2 2 2 2 2 2 2 2 2 2 2 2 2 2 2 2 2 2 2 2 1 X                       ",
"                      & H K K K K K K K K K K K K K K K K K K K K K K K K K K K K K K K K K K K K K K H &                       ",
"                      3 T @.@.@.@.@.@.@.@.@.@.@.@.@.@.@.@.@.@.@.@.@.@.@.@.@.@.@.@.@.@.@.@.@.@.@.@.@.@.T 3                       ",
"                      3 I @.@.@.T I I T @.@.@.@.@.@.@.@.@.@.@.@.@.@.@.@.@.@.@.@.@.@.@.@.T I I T @.@.@.I 3                       ",
"                      3 I @.@.T 5 & & 5 T @.@.@.@.@.@.@.@.@.@.@.@.@.@.@.@.@.@.@.@.@.@.T 5 & & 5 T @.@.I 3                       ",
"                      & 2 b q 6 = * * = 6 q b b b b b H 7 6 7 7 7 7 6 7 H b b b b b q 6 = * * = 6 q b 2 &                       ",
"                      & 2 b , . - : : - . , b b b H 2 : X X X X X X X X : 2 H b b b , . - : : - . , b 2 &                       ",
"                      3 I #.e % - : : - % e @.@.@.T 0 X - : : : : : : - X 0 T @.@.@.e % - : : - % e #.I 3                       ",
"                      3 I #.e % - : : - % e @.@.@.8 3 - : : : : : : : : - 3 8 @.@.@.e % - : : - % e #.I 3                       ",
"                      3 T =.e & w H H w & e #.@.@.6 X : : : : : : : : : : X 6 @.@.#.e & w H H w & e =.T 3                       ",
"                      & H U q 6 %.;.;.%.6 q K K K 5 X : : : : : : : : : : X 5 K K K q 6 %.;.;.%.6 q U H &                       ",
"                      X 1 2 2 H e.u.u.e.H 2 2 2 2 - X : : : : : : : : : : X - 2 2 2 2 H e.u.u.e.H 2 2 1 X                       ",
"                      & P +.+.+.@.&.&.@.+.+.+.+.+.6 X : : : : : : : : : : X 6 +.+.+.+.+.@.&.&.@.+.+.+.P &                       ",
"                      3 T @.@.@.@.+.+.@.@.@.@.@.@.7 X : ; ; ; ; ; ; ; ; : X 7 @.@.@.@.@.@.+.+.@.@.@.@.T 3                       ",
"                      3 T #.@.@.@.@.@.@.@.@.@.@.@.7 X : , , , , , , , , : X 7 @.@.@.@.@.@.@.@.@.@.@.#.T 3                       ",
"                      & L T I I I I I I I I I T I 5 X > 2 2 2 2 2 2 2 2 > X 5 I T I I I I I I I I I T L &                       ",
"                        & 3 3 3 3 3 3 3 3 3 3 3 3 $ = 2 U +.+.+.+.+.+.U 2 = $ 3 3 3 3 3 3 3 3 3 3 3 3 &                         ",
"                            @ % 7 9 5 $ @           4 1 T +.K K K K +.T 1 4           @ $ 5 9 7 % @                             ",
"                              & J O.0 $               > T +.K K K K +.T >               $ 0 O.J &                               ",
"                              3 I #.e $               > T @.+.+.+.+.@.T >               $ e #.I 3                               ",
"                              3 I #.e $               > T U K K K K U T >               $ e #.I 3                               ",
"                              3 I #.e $               > T +.T T T T +.T >               $ e #.I 3                               ",
"                              3 I #.e $               > T +.T T T T +.T >               $ e #.I 3                               ",
"                              3 I #.e $               > T U K K K K U T >               $ e #.I 3                               ",
"                              3 I #.e $               > T @.+.+.+.+.@.T >               $ e #.I 3                               ",
"                              & 5 7 5                 > T +.K K K K +.T >                 5 7 5 &                               ",
"                                # .                   > T +.K K K K O.T >                   . #                                 ",
"                                                      > T @.+.+.+.+.@.T >                                                       ",
"                                                      > T U K K K K U T >                                                       ",
"                                                      > T @.+.+.+.+.@.T >                                                       ",
"                                                      6 D H H H H H H D 6                                                       ",
"                                                        ; : : : : : : ;                                                         "
};
